<svg width="500pt" height="500pt" viewBox="0 0 500 500" xmlns="http://www.w3.org/2000/svg"><path fill="#f6f6f6" opacity=".95" d="M249.47 13.02c52.96 53.22 106.17 106.2 159.22 159.33 13.46 13.37 26.76 26.91 40.32 40.19-6.57 6.1-12.75 12.61-19.1 18.93 6.06 6.26 12.3 12.35 18.45 18.53-5.73 5.79-11.58 11.46-17.25 17.32l-.08 1.44c6.07 6.24 12.24 12.41 18.49 18.48-53.99 53.76-107.81 107.7-161.73 161.54-12.64 12.78-25.57 25.29-38.03 38.24-66.36-66.33-132.77-132.63-199.04-199.04 5.7-5.82 11.57-11.47 17.23-17.33v-1.37c-6.38-6.58-12.92-13-19.42-19.47 5.63-5.47 11.08-11.11 16.69-16.59.91-1.01 2.23-1.87 2.28-3.38a4.714 4.714 0 01-2.38-1.93c-5.14-5.01-10.26-10.05-15.21-15.25 65.4-65.2 130.64-130.57 195.99-195.83 1.24-1.22 2.43-2.49 3.57-3.81M102.86 163.85c-15.92 16.06-32.15 31.87-47.84 48.13 4.72 5.48 10.31 10.23 15.19 15.59 4.15-3.61 7.84-7.72 11.79-11.54 55.38-55.44 110.88-110.75 166.21-166.23 58.46 58.22 116.72 116.63 175.09 174.93 1.41 1.05 2.4 3.4 4.38 3.24 5.16-5.03 10.24-10.16 15.28-15.31l.05-.72c-11.82-12.16-23.97-24.01-35.91-36.05-52.75-52.68-105.34-105.51-158.16-158.11-48.83 48.55-97.38 97.39-146.08 146.07M73.4 230.68c5.77 5.67 11.44 11.45 17.19 17.14C144 194.63 197.23 141.25 250.55 87.97c4.24 4.59 8.8 8.87 13.18 13.34 48.24 48.2 96.37 96.5 144.67 144.64.32.01.96.01 1.29.01 4.81-4.69 9.58-9.44 14.26-14.27l-1.03-1.62C364.64 171.93 306.58 113.55 248.19 55.5c-58.12 58.54-116.7 116.62-174.79 175.18m20.4 19.76c.26.41.8 1.24 1.06 1.65 51.19 51.23 102.38 102.46 153.6 153.65.55 1.05 1.33.4 1.8-.22 51.96-51.96 103.88-103.94 155.84-155.89C354.25 197.74 302.42 145.84 250.52 94 198.23 146.09 146.13 198.39 93.8 250.44m-39.54-.99c5.31 6.25 11.48 11.75 17.24 17.59 5.35-5.46 10.84-10.77 16.16-16.25-5.67-5.79-11.49-11.43-17.15-17.23-5.58 5.11-10.62 10.81-16.25 15.89m357.71.14c5.28 5.15 10.31 10.57 15.73 15.58 5-5.1 10.09-10.1 15.12-15.17-5.22-5.2-10.39-10.46-15.66-15.61-5.1 5.03-10.17 10.09-15.19 15.2m-3.55 3.54c-53.15 52.96-106.05 106.18-159.26 159.08-52.51-52.62-105.15-105.11-157.72-157.67-.27-.12-.79-.36-1.05-.49-5.2 5.01-10.28 10.15-15.34 15.3-.51 1.37.89 2.12 1.65 3 57.04 56.96 114 114 171.02 170.98.93 1.62 2-.29 2.78-.88 58.01-58.13 116.14-116.14 174.12-174.29-4.99-5.07-10.02-10.12-15.09-15.11l-1.11.08m19.06 17.97c-59.59 59.67-119.32 119.2-178.86 178.91-59.01-59.1-118.06-118.15-177.21-177.11-4.74 4.86-9.66 9.56-14.36 14.45.01.34.02 1 .03 1.33 64.34 64.6 129 128.9 193.32 193.52.89-.28 1.65-.76 2.3-1.43 64.07-64.12 128.26-128.13 192.29-192.3-5.86-5.77-11.54-11.72-17.51-17.37z"/></svg>